<svg width="280" height="197" viewBox="0 0 280 197" fill="none" xmlns="http://www.w3.org/2000/svg">
<rect x="34.6456" y="0.367065" width="216.904" height="124.982" rx="4.03168" transform="rotate(0.343245 34.6456 0.367065)" fill="#2F3843"/>
<rect x="41.0309" y="11.291" width="203.197" height="105.227" rx="4.03168" transform="rotate(0.343245 41.0309 11.291)" fill="#222931"/>
<path d="M2.98332 189.438L31.4118 126.713C32.0687 125.264 33.5168 124.337 35.1081 124.346L248.061 125.622C249.716 125.632 251.197 126.652 251.796 128.194L276.271 191.236C277.301 193.888 275.334 196.744 272.489 196.727L6.63129 195.134C3.7115 195.117 1.77799 192.098 2.98332 189.438Z" fill="#1A1E26"/>
<path d="M108.344 187.487L111.284 170.477C111.557 168.9 112.93 167.75 114.53 167.76L164.904 168.062C166.463 168.071 167.8 169.179 168.099 170.709L171.426 187.756C171.822 189.786 170.26 191.67 168.192 191.658L111.551 191.319C109.528 191.307 108 189.481 108.344 187.487Z" fill="#2F3843"/>
<path d="M111.056 160.531L111.575 159.502C112.142 158.379 113.296 157.673 114.554 157.681L164.709 157.981C165.872 157.988 166.947 158.605 167.54 159.606L168.154 160.642C169.467 162.859 167.859 165.661 165.283 165.645L113.995 165.338C111.535 165.323 109.948 162.728 111.056 160.531Z" fill="#2F3843"/>
<path d="M31.6309 144.047L31.8804 142.032C32.006 141.018 32.8709 140.258 33.893 140.264L40.4704 140.304C41.4739 140.31 42.3203 141.053 42.4557 142.047L42.7305 144.065C42.8959 145.28 41.9473 146.36 40.721 146.353L33.6194 146.31C32.4127 146.303 31.4826 145.244 31.6309 144.047Z" fill="#2F3843"/>
<path d="M45.2984 144.161L45.5151 142.146C45.6257 141.118 46.497 140.34 47.5314 140.346L52.6495 140.377C53.6679 140.383 54.5218 141.147 54.6397 142.159L54.8749 144.176C55.0151 145.379 54.0712 146.433 52.8606 146.426L47.2906 146.392C46.0968 146.385 45.1707 145.348 45.2984 144.161Z" fill="#2F3843"/>
<path d="M57.3932 144.233L57.6099 142.219C57.7206 141.19 58.5918 140.412 59.6263 140.418L64.7443 140.449C65.7627 140.455 66.6166 141.22 66.7345 142.231L66.9697 144.249C67.1099 145.451 66.166 146.505 64.9554 146.498L59.3854 146.465C58.1916 146.457 57.2655 145.42 57.3932 144.233Z" fill="#2F3843"/>
<path d="M69.488 144.306L69.7047 142.291C69.8154 141.263 70.6866 140.485 71.7211 140.491L76.8391 140.522C77.8575 140.528 78.7114 141.292 78.8293 142.304L79.0645 144.321C79.2048 145.524 78.2608 146.578 77.0502 146.57L71.4802 146.537C70.2864 146.53 69.3603 145.493 69.488 144.306Z" fill="#2F3843"/>
<path d="M81.5828 144.378L81.7995 142.364C81.9102 141.335 82.7814 140.557 83.8159 140.563L88.934 140.594C89.9523 140.6 90.8062 141.365 90.9242 142.376L91.1594 144.394C91.2996 145.596 90.3557 146.65 89.145 146.643L83.575 146.61C82.3812 146.602 81.4551 145.565 81.5828 144.378Z" fill="#2F3843"/>
<path d="M93.6776 144.451L93.8944 142.436C94.005 141.407 94.8763 140.63 95.9107 140.636L101.029 140.666C102.047 140.673 102.901 141.437 103.019 142.449L103.254 144.466C103.394 145.669 102.45 146.723 101.24 146.715L95.6698 146.682C94.476 146.675 93.5499 145.638 93.6776 144.451Z" fill="#2F3843"/>
<path d="M105.772 144.523L105.989 142.508C106.1 141.48 106.971 140.702 108.006 140.708L113.124 140.739C114.142 140.745 114.996 141.51 115.114 142.521L115.349 144.539C115.489 145.741 114.545 146.795 113.335 146.788L107.765 146.754C106.571 146.747 105.645 145.71 105.772 144.523Z" fill="#2F3843"/>
<path d="M117.867 144.595L118.084 142.581C118.195 141.552 119.066 140.775 120.1 140.781L125.218 140.811C126.237 140.817 127.091 141.582 127.209 142.594L127.444 144.611C127.584 145.814 126.64 146.868 125.429 146.86L119.859 146.827C118.666 146.82 117.74 145.782 117.867 144.595Z" fill="#2F3843"/>
<path d="M129.962 144.668L130.179 142.653C130.289 141.625 131.161 140.847 132.195 140.853L137.313 140.884C138.332 140.89 139.185 141.655 139.303 142.666L139.539 144.684C139.679 145.886 138.735 146.94 137.524 146.933L131.954 146.899C130.76 146.892 129.834 145.855 129.962 144.668Z" fill="#2F3843"/>
<path d="M142.057 144.74L142.274 142.726C142.384 141.697 143.255 140.919 144.29 140.926L149.408 140.956C150.426 140.962 151.28 141.727 151.398 142.739L151.633 144.756C151.774 145.958 150.83 147.012 149.619 147.005L144.049 146.972C142.855 146.965 141.929 145.927 142.057 144.74Z" fill="#2F3843"/>
<path d="M154.152 144.813L154.368 142.798C154.479 141.77 155.35 140.992 156.385 140.998L161.503 141.029C162.521 141.035 163.375 141.8 163.493 142.811L163.728 144.828C163.868 146.031 162.925 147.085 161.714 147.078L156.144 147.044C154.95 147.037 154.024 146 154.152 144.813Z" fill="#2F3843"/>
<path d="M166.247 144.885L166.463 142.871C166.574 141.842 167.445 141.064 168.48 141.071L173.598 141.101C174.616 141.107 175.47 141.872 175.588 142.884L175.823 144.901C175.963 146.103 175.019 147.157 173.809 147.15L168.239 147.117C167.045 147.11 166.119 146.072 166.247 144.885Z" fill="#2F3843"/>
<path d="M178.341 144.958L178.558 142.943C178.669 141.915 179.54 141.137 180.574 141.143L185.692 141.174C186.711 141.18 187.565 141.944 187.683 142.956L187.918 144.973C188.058 146.176 187.114 147.23 185.904 147.223L180.334 147.189C179.14 147.182 178.214 146.145 178.341 144.958Z" fill="#2F3843"/>
<path d="M190.436 145.03L190.653 143.016C190.764 141.987 191.635 141.209 192.669 141.215L197.787 141.246C198.806 141.252 199.66 142.017 199.777 143.028L200.013 145.046C200.153 146.248 199.209 147.302 197.998 147.295L192.428 147.262C191.235 147.254 190.308 146.217 190.436 145.03Z" fill="#2F3843"/>
<path d="M202.531 145.103L202.748 143.088C202.858 142.06 203.73 141.282 204.764 141.288L209.882 141.319C210.9 141.325 211.754 142.089 211.872 143.101L212.108 145.118C212.248 146.321 211.304 147.375 210.093 147.368L204.523 147.334C203.329 147.327 202.403 146.29 202.531 145.103Z" fill="#2F3843"/>
<path d="M214.626 145.175L214.843 143.161C214.953 142.132 215.824 141.354 216.859 141.36L221.977 141.391C222.995 141.397 223.849 142.162 223.967 143.173L224.202 145.191C224.343 146.393 223.399 147.447 222.188 147.44L216.618 147.407C215.424 147.399 214.498 146.362 214.626 145.175Z" fill="#2F3843"/>
<path d="M226.721 145.248L226.937 143.233C227.048 142.205 227.919 141.427 228.954 141.433L234.072 141.464C235.09 141.47 235.944 142.234 236.062 143.246L236.297 145.263C236.437 146.466 235.493 147.52 234.283 147.512L228.713 147.479C227.519 147.472 226.593 146.435 226.721 145.248Z" fill="#2F3843"/>
<path d="M238.815 145.32L239.032 143.305C239.143 142.277 240.014 141.499 241.049 141.505L246.167 141.536C247.185 141.542 248.039 142.307 248.157 143.318L248.392 145.336C248.532 146.538 247.588 147.592 246.378 147.585L240.808 147.551C239.614 147.544 238.688 146.507 238.815 145.32Z" fill="#2F3843"/>
<path d="M30.3911 152.49L30.657 150.476C30.7899 149.468 31.6516 148.717 32.6676 148.724L39.974 148.767C40.9703 148.773 41.8127 149.506 41.9567 150.492L42.2512 152.51C42.4295 153.731 41.4785 154.824 40.2444 154.817L32.3776 154.769C31.1644 154.762 30.2324 153.693 30.3911 152.49Z" fill="#2F3843"/>
<path d="M44.8445 152.625L45.0612 150.61C45.1719 149.582 46.0431 148.804 47.0776 148.81L52.1956 148.841C53.214 148.847 54.0679 149.611 54.1858 150.623L54.4211 152.64C54.5613 153.843 53.6174 154.897 52.4067 154.889L46.8367 154.856C45.6429 154.849 44.7168 153.812 44.8445 152.625Z" fill="#2F3843"/>
<path d="M56.9393 152.697L57.156 150.683C57.2667 149.654 58.1379 148.876 59.1724 148.882L64.2904 148.913C65.3088 148.919 66.1627 149.684 66.2806 150.695L66.5158 152.713C66.6561 153.915 65.7121 154.969 64.5015 154.962L58.9315 154.929C57.7377 154.921 56.8116 153.884 56.9393 152.697Z" fill="#2F3843"/>
<path d="M69.0341 152.77L69.2508 150.755C69.3615 149.726 70.2327 148.949 71.2672 148.955L76.3853 148.985C77.4036 148.992 78.2575 149.756 78.3755 150.768L78.6107 152.785C78.7509 153.988 77.807 155.042 76.5963 155.034L71.0263 155.001C69.8325 154.994 68.9064 153.957 69.0341 152.77Z" fill="#2F3843"/>
<path d="M81.1289 152.842L81.3457 150.827C81.4563 149.799 82.3276 149.021 83.362 149.027L88.4801 149.058C89.4984 149.064 90.3523 149.829 90.4703 150.84L90.7055 152.858C90.8457 154.06 89.9018 155.114 88.6911 155.107L83.1211 155.073C81.9273 155.066 81.0012 154.029 81.1289 152.842Z" fill="#2F3843"/>
<path d="M93.2237 152.914L93.4405 150.9C93.5511 149.871 94.4224 149.094 95.4568 149.1L100.575 149.13C101.593 149.136 102.447 149.901 102.565 150.913L102.8 152.93C102.941 154.133 101.997 155.187 100.786 155.179L95.2159 155.146C94.0221 155.139 93.0961 154.101 93.2237 152.914Z" fill="#2F3843"/>
<path d="M105.319 152.987L105.535 150.972C105.646 149.944 106.517 149.166 107.552 149.172L112.67 149.203C113.688 149.209 114.542 149.974 114.66 150.985L114.895 153.002C115.035 154.205 114.091 155.259 112.881 155.252L107.311 155.218C106.117 155.211 105.191 154.174 105.319 152.987Z" fill="#2F3843"/>
<path d="M117.413 153.059L117.63 151.045C117.741 150.016 118.612 149.238 119.646 149.245L124.765 149.275C125.783 149.281 126.637 150.046 126.755 151.058L126.99 153.075C127.13 154.277 126.186 155.331 124.976 155.324L119.406 155.291C118.212 155.284 117.286 154.246 117.413 153.059Z" fill="#2F3843"/>
<path d="M129.508 153.132L129.725 151.117C129.836 150.089 130.707 149.311 131.741 149.317L136.859 149.348C137.878 149.354 138.732 150.119 138.85 151.13L139.085 153.147C139.225 154.35 138.281 155.404 137.07 155.397L131.5 155.363C130.307 155.356 129.381 154.319 129.508 153.132Z" fill="#2F3843"/>
<path d="M141.603 153.204L141.82 151.19C141.93 150.161 142.802 149.383 143.836 149.39L148.954 149.42C149.973 149.426 150.826 150.191 150.944 151.203L151.18 153.22C151.32 154.422 150.376 155.476 149.165 155.469L143.595 155.436C142.401 155.429 141.475 154.391 141.603 153.204Z" fill="#2F3843"/>
<path d="M153.698 153.277L153.915 151.262C154.025 150.234 154.896 149.456 155.931 149.462L161.049 149.493C162.067 149.499 162.921 150.264 163.039 151.275L163.274 153.292C163.415 154.495 162.471 155.549 161.26 155.542L155.69 155.508C154.496 155.501 153.57 154.464 153.698 153.277Z" fill="#2F3843"/>
<path d="M165.793 153.349L166.009 151.335C166.12 150.306 166.991 149.528 168.026 149.534L173.144 149.565C174.162 149.571 175.016 150.336 175.134 151.347L175.369 153.365C175.509 154.567 174.566 155.621 173.355 155.614L167.785 155.581C166.591 155.574 165.665 154.536 165.793 153.349Z" fill="#2F3843"/>
<path d="M177.887 153.422L178.104 151.407C178.215 150.379 179.086 149.601 180.121 149.607L185.239 149.638C186.257 149.644 187.111 150.408 187.229 151.42L187.464 153.437C187.604 154.64 186.66 155.694 185.45 155.686L179.88 155.653C178.686 155.646 177.76 154.609 177.887 153.422Z" fill="#2F3843"/>
<path d="M189.982 153.494L190.199 151.48C190.31 150.451 191.181 149.673 192.215 149.679L197.333 149.71C198.352 149.716 199.206 150.481 199.324 151.492L199.559 153.51C199.699 154.712 198.755 155.766 197.544 155.759L191.974 155.726C190.781 155.718 189.855 154.681 189.982 153.494Z" fill="#2F3843"/>
<path d="M202.077 153.567L202.294 151.552C202.404 150.523 203.276 149.746 204.31 149.752L209.428 149.782C210.447 149.789 211.301 150.553 211.418 151.565L211.654 153.582C211.794 154.785 210.85 155.839 209.639 155.831L204.069 155.798C202.876 155.791 201.949 154.754 202.077 153.567Z" fill="#2F3843"/>
<path d="M214.172 153.639L214.389 151.625C214.499 150.596 215.371 149.818 216.405 149.824L221.523 149.855C222.541 149.861 223.395 150.626 223.513 151.637L223.748 153.655C223.889 154.857 222.945 155.911 221.734 155.904L216.164 155.871C214.97 155.863 214.044 154.826 214.172 153.639Z" fill="#2F3843"/>
<path d="M226.267 153.712L226.483 151.697C226.594 150.668 227.465 149.891 228.5 149.897L233.618 149.927C234.636 149.934 235.49 150.698 235.608 151.71L235.843 153.727C235.983 154.93 235.04 155.984 233.829 155.976L228.259 155.943C227.065 155.936 226.139 154.899 226.267 153.712Z" fill="#2F3843"/>
<path d="M238.464 153.705L238.762 151.69C238.909 150.698 239.765 149.964 240.768 149.97L249.532 150.023C250.514 150.029 251.348 150.741 251.509 151.709L251.843 153.727C252.047 154.96 251.092 156.08 249.842 156.072L240.445 156.016C239.219 156.009 238.284 154.917 238.464 153.705Z" fill="#2F3843"/>
<path d="M26.8681 161.623L27.2567 159.61C27.4407 158.657 28.2776 157.97 29.2481 157.976L42.0132 158.053C42.9555 158.058 43.7681 158.716 43.9701 159.636L44.413 161.655C44.69 162.917 43.7243 164.11 42.432 164.103L28.8353 164.021C27.5737 164.014 26.629 162.862 26.8681 161.623Z" fill="#2F3843"/>
<path d="M47.2079 161.912L47.4246 159.897C47.5353 158.869 48.4065 158.091 49.441 158.097L54.5591 158.128C55.5774 158.134 56.4313 158.899 56.5492 159.91L56.7845 161.927C56.9247 163.13 55.9808 164.184 54.7701 164.177L49.2001 164.143C48.0063 164.136 47.0802 163.099 47.2079 161.912Z" fill="#2F3843"/>
<path d="M59.3027 161.984L59.5195 159.97C59.6301 158.941 60.5013 158.163 61.5358 158.17L66.6539 158.2C67.6722 158.206 68.5261 158.971 68.6441 159.983L68.8793 162C69.0195 163.202 68.0756 164.256 66.8649 164.249L61.2949 164.216C60.1011 164.209 59.175 163.171 59.3027 161.984Z" fill="#2F3843"/>
<path d="M71.3975 162.057L71.6143 160.042C71.7249 159.014 72.5962 158.236 73.6306 158.242L78.7487 158.273C79.7671 158.279 80.6209 159.043 80.7389 160.055L80.9741 162.072C81.1143 163.275 80.1704 164.329 78.9597 164.322L73.3897 164.288C72.1959 164.281 71.2699 163.244 71.3975 162.057Z" fill="#2F3843"/>
<path d="M83.4924 162.129L83.7091 160.115C83.8197 159.086 84.691 158.308 85.7254 158.315L90.8435 158.345C91.8619 158.351 92.7158 159.116 92.8337 160.128L93.0689 162.145C93.2091 163.347 92.2652 164.401 91.0546 164.394L85.4846 164.361C84.2908 164.354 83.3647 163.316 83.4924 162.129Z" fill="#2F3843"/>
<path d="M95.5872 162.202L95.8039 160.187C95.9146 159.159 96.7858 158.381 97.8203 158.387L102.938 158.418C103.957 158.424 104.811 159.188 104.929 160.2L105.164 162.217C105.304 163.42 104.36 164.474 103.149 164.467L97.5794 164.433C96.3856 164.426 95.4595 163.389 95.5872 162.202Z" fill="#2F3843"/>
<path d="M175.01 162.677L175.227 160.663C175.337 159.634 176.208 158.857 177.243 158.863L182.361 158.893C183.379 158.899 184.233 159.664 184.351 160.676L184.586 162.693C184.727 163.896 183.783 164.95 182.572 164.942L177.002 164.909C175.808 164.902 174.882 163.864 175.01 162.677Z" fill="#2F3843"/>
<path d="M187.105 162.75L187.321 160.735C187.432 159.707 188.303 158.929 189.338 158.935L194.456 158.966C195.474 158.972 196.328 159.737 196.446 160.748L196.681 162.765C196.821 163.968 195.877 165.022 194.667 165.015L189.097 164.981C187.903 164.974 186.977 163.937 187.105 162.75Z" fill="#2F3843"/>
<path d="M199.199 162.822L199.416 160.808C199.527 159.779 200.398 159.001 201.433 159.008L206.551 159.038C207.569 159.044 208.423 159.809 208.541 160.821L208.776 162.838C208.916 164.04 207.972 165.094 206.762 165.087L201.192 165.054C199.998 165.047 199.072 164.009 199.199 162.822Z" fill="#2F3843"/>
<path d="M211.294 162.895L211.511 160.88C211.622 159.852 212.493 159.074 213.527 159.08L218.645 159.111C219.664 159.117 220.518 159.882 220.636 160.893L220.871 162.91C221.011 164.113 220.067 165.167 218.856 165.16L213.286 165.126C212.093 165.119 211.167 164.082 211.294 162.895Z" fill="#2F3843"/>
<path d="M223.389 162.967L223.606 160.953C223.716 159.924 224.588 159.146 225.622 159.153L230.74 159.183C231.759 159.189 232.612 159.954 232.73 160.966L232.966 162.983C233.106 164.185 232.162 165.239 230.951 165.232L225.381 165.199C224.187 165.192 223.261 164.154 223.389 162.967Z" fill="#2F3843"/>
<path d="M235.694 162.882L236.075 160.869C236.255 159.912 237.094 159.221 238.067 159.227L250.469 159.301C251.415 159.307 252.23 159.97 252.428 160.894L252.861 162.913C253.131 164.173 252.166 165.359 250.878 165.352L237.663 165.272C236.404 165.265 235.46 164.119 235.694 162.882Z" fill="#2F3843"/>
<path d="M32.8737 134.799L33.0588 133.187C33.1762 132.165 34.0446 131.395 35.0735 131.401L40.2201 131.432C41.2319 131.438 42.0824 132.193 42.2082 133.197L42.4105 134.811C42.562 136.019 41.6159 137.085 40.3983 137.078L34.8643 137.045C33.6647 137.037 32.7368 135.991 32.8737 134.799Z" fill="#2F3843"/>
<path d="M44.9685 134.871L45.1536 133.26C45.271 132.238 46.1394 131.468 47.1683 131.474L52.3149 131.505C53.3267 131.511 54.1772 132.266 54.303 133.27L54.5053 134.884C54.6568 136.092 53.7107 137.158 52.4931 137.15L46.9591 137.117C45.7595 137.11 44.8317 136.063 44.9685 134.871Z" fill="#2F3843"/>
<path d="M57.0633 134.944L57.2484 133.332C57.3658 132.31 58.2342 131.54 59.2632 131.546L64.4098 131.577C65.4215 131.583 66.272 132.338 66.3979 133.342L66.6002 134.956C66.7516 136.164 65.8055 137.23 64.5879 137.223L59.0539 137.19C57.8544 137.182 56.9265 136.136 57.0633 134.944Z" fill="#2F3843"/>
<path d="M69.1582 135.016L69.3432 133.405C69.4606 132.382 70.3291 131.613 71.358 131.619L76.5046 131.65C77.5163 131.656 78.3668 132.411 78.4927 133.415L78.695 135.029C78.8464 136.237 77.9003 137.303 76.6827 137.295L71.1488 137.262C69.9492 137.255 69.0213 136.208 69.1582 135.016Z" fill="#2F3843"/>
<path d="M81.253 135.089L81.438 133.477C81.5554 132.455 82.4239 131.685 83.4528 131.691L88.5994 131.722C89.6111 131.728 90.4617 132.483 90.5875 133.487L90.7898 135.101C90.9412 136.309 89.9952 137.375 88.7775 137.368L83.2436 137.335C82.044 137.327 81.1161 136.281 81.253 135.089Z" fill="#2F3843"/>
<path d="M93.3478 135.161L93.5329 133.55C93.6503 132.527 94.5187 131.758 95.5476 131.764L100.694 131.795C101.706 131.801 102.556 132.556 102.682 133.56L102.885 135.174C103.036 136.382 102.09 137.447 100.872 137.44L95.3384 137.407C94.1388 137.4 93.2109 136.353 93.3478 135.161Z" fill="#2F3843"/>
<path d="M105.443 135.234L105.628 133.622C105.745 132.6 106.614 131.83 107.642 131.836L112.789 131.867C113.801 131.873 114.651 132.628 114.777 133.632L114.979 135.246C115.131 136.454 114.185 137.52 112.967 137.513L107.433 137.479C106.234 137.472 105.306 136.425 105.443 135.234Z" fill="#2F3843"/>
<path d="M117.537 135.306L117.722 133.694C117.84 132.672 118.708 131.903 119.737 131.909L124.884 131.94C125.896 131.946 126.746 132.701 126.872 133.705L127.074 135.319C127.226 136.527 126.28 137.592 125.062 137.585L119.528 137.552C118.328 137.545 117.401 136.498 117.537 135.306Z" fill="#2F3843"/>
<path d="M129.632 135.379L129.817 133.767C129.935 132.745 130.803 131.975 131.832 131.981L136.979 132.012C137.99 132.018 138.841 132.773 138.967 133.777L139.169 135.391C139.32 136.599 138.374 137.665 137.157 137.657L131.623 137.624C130.423 137.617 129.495 136.57 129.632 135.379Z" fill="#2F3843"/>
<path d="M141.727 135.451L141.912 133.839C142.03 132.817 142.898 132.047 143.927 132.054L149.073 132.084C150.085 132.09 150.936 132.846 151.062 133.849L151.264 135.463C151.415 136.672 150.469 137.737 149.252 137.73L143.718 137.697C142.518 137.69 141.59 136.643 141.727 135.451Z" fill="#2F3843"/>
<path d="M153.822 135.523L154.007 133.912C154.124 132.89 154.993 132.12 156.022 132.126L161.168 132.157C162.18 132.163 163.031 132.918 163.156 133.922L163.359 135.536C163.51 136.744 162.564 137.81 161.346 137.802L155.812 137.769C154.613 137.762 153.685 136.715 153.822 135.523Z" fill="#2F3843"/>
<path d="M165.917 135.596L166.102 133.984C166.219 132.962 167.088 132.192 168.116 132.199L173.263 132.229C174.275 132.235 175.125 132.991 175.251 133.994L175.453 135.608C175.605 136.817 174.659 137.882 173.441 137.875L167.907 137.842C166.708 137.835 165.78 136.788 165.917 135.596Z" fill="#2F3843"/>
<path d="M178.011 135.668L178.197 134.057C178.314 133.035 179.182 132.265 180.211 132.271L185.358 132.302C186.37 132.308 187.22 133.063 187.346 134.067L187.548 135.681C187.7 136.889 186.754 137.955 185.536 137.947L180.002 137.914C178.803 137.907 177.875 136.86 178.011 135.668Z" fill="#2F3843"/>
<path d="M190.106 135.741L190.291 134.129C190.409 133.107 191.277 132.337 192.306 132.343L197.453 132.374C198.464 132.38 199.315 133.135 199.441 134.139L199.643 135.753C199.795 136.961 198.848 138.027 197.631 138.02L192.097 137.987C190.897 137.979 189.969 136.933 190.106 135.741Z" fill="#2F3843"/>
<path d="M202.201 135.813L202.386 134.202C202.504 133.179 203.372 132.41 204.401 132.416L209.548 132.447C210.559 132.453 211.41 133.208 211.536 134.212L211.738 135.826C211.889 137.034 210.943 138.1 209.726 138.092L204.192 138.059C202.992 138.052 202.064 137.005 202.201 135.813Z" fill="#2F3843"/>
<path d="M214.296 135.886L214.481 134.274C214.598 133.252 215.467 132.482 216.496 132.488L221.642 132.519C222.654 132.525 223.505 133.28 223.63 134.284L223.833 135.898C223.984 137.106 223.038 138.172 221.821 138.165L216.287 138.132C215.087 138.124 214.159 137.078 214.296 135.886Z" fill="#2F3843"/>
<path d="M226.391 135.958L226.576 134.347C226.693 133.324 227.562 132.555 228.591 132.561L233.737 132.592C234.749 132.598 235.599 133.353 235.725 134.357L235.928 135.971C236.079 137.179 235.133 138.244 233.915 138.237L228.381 138.204C227.182 138.197 226.254 137.15 226.391 135.958Z" fill="#2F3843"/>
<path d="M238.486 136.031L238.671 134.419C238.788 133.397 239.656 132.627 240.685 132.633L245.832 132.664C246.844 132.67 247.694 133.425 247.82 134.429L248.022 136.043C248.174 137.251 247.228 138.317 246.01 138.31L240.476 138.276C239.277 138.269 238.349 137.222 238.486 136.031Z" fill="#2F3843"/>
<path d="M68.666 60C68.564 60 68.4847 59.9717 68.428 59.915C68.3713 59.847 68.343 59.762 68.343 59.66V47.675C68.343 47.573 68.36 47.4993 68.394 47.454C68.4393 47.4087 68.513 47.386 68.615 47.386H71.488C71.6013 47.386 71.6807 47.403 71.726 47.437C71.7827 47.471 71.8223 47.5333 71.845 47.624L74.837 55.648C74.871 55.7387 74.9107 55.784 74.956 55.784C75.0013 55.784 75.041 55.733 75.075 55.631L77.982 47.709C78.0387 47.4937 78.152 47.386 78.322 47.386H81.297C81.4557 47.386 81.535 47.4767 81.535 47.658V59.643C81.535 59.7677 81.5067 59.8583 81.45 59.915C81.3933 59.9717 81.297 60 81.161 60H79.342C79.2287 60 79.1437 59.9773 79.087 59.932C79.0417 59.8867 79.019 59.8073 79.019 59.694V50.803C79.019 50.735 79.002 50.701 78.968 50.701C78.9567 50.701 78.9283 50.7407 78.883 50.82L75.653 59.745C75.6077 59.915 75.4943 60 75.313 60H74.106C73.9247 60 73.8 59.915 73.732 59.745L70.536 50.922C70.5247 50.8427 70.4963 50.803 70.451 50.803C70.417 50.803 70.4 50.8483 70.4 50.939V59.728C70.4 59.83 70.3773 59.9037 70.332 59.949C70.298 59.983 70.2243 60 70.111 60H68.666ZM88.9911 59.065C88.1978 59.8017 87.2684 60.17 86.2031 60.17C85.3418 60.17 84.6561 59.9433 84.1461 59.49C83.6474 59.0253 83.3981 58.4247 83.3981 57.688C83.3981 56.7473 83.8174 55.9993 84.6561 55.444C85.4948 54.8887 86.6678 54.5827 88.1751 54.526L89.0251 54.475C89.2064 54.4523 89.2971 54.3673 89.2971 54.22V53.829C89.2971 53.3303 89.1441 52.945 88.8381 52.673C88.5434 52.3897 88.1354 52.248 87.6141 52.248C86.7528 52.248 86.0898 52.622 85.6251 53.37C85.5911 53.4153 85.5571 53.455 85.5231 53.489C85.5004 53.5117 85.4664 53.523 85.4211 53.523C85.3644 53.523 85.3191 53.5173 85.2851 53.506L83.8571 53.149C83.7664 53.1263 83.7211 53.0753 83.7211 52.996C83.7211 52.9393 83.7438 52.8657 83.7891 52.775C84.0838 52.1403 84.5654 51.6587 85.2341 51.33C85.9141 50.99 86.7414 50.82 87.7161 50.82C88.9854 50.82 89.9148 51.0693 90.5041 51.568C91.1048 52.0667 91.4051 52.7693 91.4051 53.676V59.66C91.4051 59.7847 91.3824 59.8753 91.3371 59.932C91.3031 59.9773 91.2294 60 91.1161 60H89.6711C89.5691 60 89.4954 59.966 89.4501 59.898C89.4048 59.83 89.3708 59.728 89.3481 59.592L89.3311 59.082C89.3198 58.98 89.2801 58.929 89.2121 58.929C89.1781 58.929 89.1044 58.9743 88.9911 59.065ZM89.2971 55.886C89.2971 55.784 89.2744 55.7103 89.2291 55.665C89.1951 55.6197 89.1328 55.597 89.0421 55.597L88.3451 55.648C87.5518 55.7047 86.8888 55.886 86.3561 56.192C85.8348 56.4867 85.5741 56.8947 85.5741 57.416C85.5741 57.8013 85.7101 58.1073 85.9821 58.334C86.2654 58.5607 86.6394 58.674 87.1041 58.674C87.6934 58.674 88.2091 58.4927 88.6511 58.13C89.0818 57.79 89.2971 57.4443 89.2971 57.093V55.886ZM93.7276 60C93.6143 60 93.5349 59.9773 93.4896 59.932C93.4443 59.8867 93.4216 59.8073 93.4216 59.694V51.279C93.4216 51.0863 93.5009 50.99 93.6596 50.99H95.3596C95.5069 50.99 95.5806 51.075 95.5806 51.245V52.129C95.5806 52.197 95.5976 52.2367 95.6316 52.248C95.6656 52.2593 95.7109 52.2423 95.7676 52.197C96.3003 51.7323 96.7933 51.3867 97.2466 51.16C97.7113 50.9333 98.2099 50.82 98.7426 50.82C99.5813 50.82 100.239 51.0637 100.715 51.551C101.202 52.027 101.446 52.6617 101.446 53.455V59.643C101.446 59.881 101.327 60 101.089 60H99.5246C99.4113 60 99.3319 59.9773 99.2866 59.932C99.2526 59.8867 99.2356 59.8073 99.2356 59.694V53.846C99.2356 53.404 99.1109 53.064 98.8616 52.826C98.6236 52.5767 98.2723 52.452 97.8076 52.452C97.4109 52.452 97.0483 52.5427 96.7196 52.724C96.4023 52.9053 96.0396 53.2 95.6316 53.608V59.66C95.6316 59.7847 95.6033 59.8753 95.5466 59.932C95.4899 59.9773 95.3879 60 95.2406 60H93.7276ZM108.531 59.065C107.738 59.8017 106.808 60.17 105.743 60.17C104.882 60.17 104.196 59.9433 103.686 59.49C103.187 59.0253 102.938 58.4247 102.938 57.688C102.938 56.7473 103.357 55.9993 104.196 55.444C105.035 54.8887 106.208 54.5827 107.715 54.526L108.565 54.475C108.746 54.4523 108.837 54.3673 108.837 54.22V53.829C108.837 53.3303 108.684 52.945 108.378 52.673C108.083 52.3897 107.675 52.248 107.154 52.248C106.293 52.248 105.63 52.622 105.165 53.37C105.131 53.4153 105.097 53.455 105.063 53.489C105.04 53.5117 105.006 53.523 104.961 53.523C104.904 53.523 104.859 53.5173 104.825 53.506L103.397 53.149C103.306 53.1263 103.261 53.0753 103.261 52.996C103.261 52.9393 103.284 52.8657 103.329 52.775C103.624 52.1403 104.105 51.6587 104.774 51.33C105.454 50.99 106.281 50.82 107.256 50.82C108.525 50.82 109.455 51.0693 110.044 51.568C110.645 52.0667 110.945 52.7693 110.945 53.676V59.66C110.945 59.7847 110.922 59.8753 110.877 59.932C110.843 59.9773 110.769 60 110.656 60H109.211C109.109 60 109.035 59.966 108.99 59.898C108.945 59.83 108.911 59.728 108.888 59.592L108.871 59.082C108.86 58.98 108.82 58.929 108.752 58.929C108.718 58.929 108.644 58.9743 108.531 59.065ZM108.837 55.886C108.837 55.784 108.814 55.7103 108.769 55.665C108.735 55.6197 108.673 55.597 108.582 55.597L107.885 55.648C107.092 55.7047 106.429 55.886 105.896 56.192C105.375 56.4867 105.114 56.8947 105.114 57.416C105.114 57.8013 105.25 58.1073 105.522 58.334C105.805 58.5607 106.179 58.674 106.644 58.674C107.233 58.674 107.749 58.4927 108.191 58.13C108.622 57.79 108.837 57.4443 108.837 57.093V55.886ZM121.734 50.684C121.96 50.684 122.074 50.7973 122.074 51.024V51.976C122.074 52.2593 121.949 52.384 121.7 52.35C121.609 52.3387 121.484 52.333 121.326 52.333C121.156 52.333 121.003 52.35 120.867 52.384C120.572 52.452 120.459 52.5823 120.527 52.775C120.595 52.9563 120.646 53.1093 120.68 53.234C120.714 53.3473 120.731 53.4947 120.731 53.676C120.731 54.1973 120.578 54.6677 120.272 55.087C119.977 55.5063 119.529 55.8407 118.929 56.09C118.339 56.328 117.62 56.447 116.77 56.447C116.067 56.447 115.557 56.5037 115.24 56.617C114.934 56.7303 114.781 56.8833 114.781 57.076C114.781 57.2347 114.871 57.348 115.053 57.416C115.245 57.484 115.563 57.5293 116.005 57.552L118.351 57.688C119.427 57.7447 120.226 57.9883 120.748 58.419C121.28 58.8383 121.547 59.405 121.547 60.119C121.547 60.9917 121.139 61.683 120.323 62.193C119.518 62.7143 118.368 62.975 116.872 62.975C115.296 62.975 114.106 62.7823 113.302 62.397C112.508 62.023 112.112 61.462 112.112 60.714C112.112 60.34 112.248 60.017 112.52 59.745C112.803 59.4617 113.205 59.2123 113.727 58.997C113.795 58.9743 113.829 58.946 113.829 58.912C113.829 58.878 113.795 58.844 113.727 58.81C113.115 58.538 112.809 58.1527 112.809 57.654C112.809 57.3593 112.95 57.0873 113.234 56.838C113.517 56.5887 113.891 56.3733 114.356 56.192C114.435 56.1467 114.475 56.1127 114.475 56.09C114.475 56.056 114.441 56.022 114.373 55.988C113.319 55.4893 112.792 54.7243 112.792 53.693C112.792 52.8203 113.149 52.129 113.863 51.619C114.588 51.109 115.614 50.854 116.94 50.854C118.084 50.854 118.968 51.109 119.592 51.619C119.671 51.6757 119.745 51.704 119.813 51.704C119.892 51.704 119.966 51.67 120.034 51.602C120.238 51.3527 120.504 51.1373 120.833 50.956C121.173 50.7747 121.473 50.684 121.734 50.684ZM116.753 55.291C117.399 55.291 117.886 55.1493 118.215 54.866C118.543 54.5827 118.708 54.1973 118.708 53.71C118.708 53.1887 118.543 52.7807 118.215 52.486C117.886 52.18 117.399 52.027 116.753 52.027C116.141 52.027 115.659 52.18 115.308 52.486C114.968 52.792 114.798 53.2 114.798 53.71C114.798 54.186 114.968 54.5713 115.308 54.866C115.659 55.1493 116.141 55.291 116.753 55.291ZM115.41 59.286C115.07 59.2633 114.741 59.3653 114.424 59.592C114.118 59.8187 113.965 60.0963 113.965 60.425C113.965 60.8897 114.208 61.241 114.696 61.479C115.194 61.717 115.976 61.836 117.042 61.836C117.869 61.836 118.498 61.717 118.929 61.479C119.359 61.2523 119.575 60.918 119.575 60.476C119.575 59.8187 119.087 59.4673 118.113 59.422L115.41 59.286ZM125.091 56.192C125.091 56.6567 125.198 57.076 125.414 57.45C125.629 57.8127 125.924 58.1017 126.298 58.317C126.683 58.521 127.102 58.623 127.556 58.623C128.02 58.623 128.44 58.5267 128.814 58.334C129.199 58.13 129.562 57.8183 129.902 57.399C129.958 57.3423 130.004 57.314 130.038 57.314C130.072 57.314 130.123 57.331 130.191 57.365L131.228 57.824C131.307 57.858 131.347 57.909 131.347 57.977C131.347 58.011 131.324 58.062 131.279 58.13C130.769 58.8667 130.202 59.3937 129.579 59.711C128.967 60.017 128.207 60.17 127.301 60.17C126.439 60.17 125.663 59.9773 124.972 59.592C124.292 59.2067 123.759 58.6683 123.374 57.977C122.988 57.2857 122.796 56.498 122.796 55.614C122.796 54.662 122.994 53.8233 123.391 53.098C123.787 52.3727 124.326 51.8117 125.006 51.415C125.686 51.0183 126.439 50.82 127.267 50.82C128.117 50.82 128.865 51.007 129.511 51.381C130.168 51.755 130.672 52.299 131.024 53.013C131.386 53.7157 131.568 54.5543 131.568 55.529V55.597C131.568 55.7103 131.551 55.7897 131.517 55.835C131.483 55.8803 131.409 55.9087 131.296 55.92H125.278C125.153 55.92 125.091 56.0107 125.091 56.192ZM129.12 54.662C129.233 54.662 129.307 54.6507 129.341 54.628C129.386 54.594 129.409 54.526 129.409 54.424C129.409 54.0613 129.329 53.71 129.171 53.37C129.012 53.03 128.774 52.7523 128.457 52.537C128.151 52.3217 127.782 52.214 127.352 52.214C126.683 52.214 126.139 52.452 125.72 52.928C125.312 53.3927 125.113 53.9707 125.125 54.662H129.12ZM141.784 59.065C140.991 59.8017 140.061 60.17 138.996 60.17C138.135 60.17 137.449 59.9433 136.939 59.49C136.44 59.0253 136.191 58.4247 136.191 57.688C136.191 56.7473 136.61 55.9993 137.449 55.444C138.288 54.8887 139.461 54.5827 140.968 54.526L141.818 54.475C141.999 54.4523 142.09 54.3673 142.09 54.22V53.829C142.09 53.3303 141.937 52.945 141.631 52.673C141.336 52.3897 140.928 52.248 140.407 52.248C139.546 52.248 138.883 52.622 138.418 53.37C138.384 53.4153 138.35 53.455 138.316 53.489C138.293 53.5117 138.259 53.523 138.214 53.523C138.157 53.523 138.112 53.5173 138.078 53.506L136.65 53.149C136.559 53.1263 136.514 53.0753 136.514 52.996C136.514 52.9393 136.537 52.8657 136.582 52.775C136.877 52.1403 137.358 51.6587 138.027 51.33C138.707 50.99 139.534 50.82 140.509 50.82C141.778 50.82 142.708 51.0693 143.297 51.568C143.898 52.0667 144.198 52.7693 144.198 53.676V59.66C144.198 59.7847 144.175 59.8753 144.13 59.932C144.096 59.9773 144.022 60 143.909 60H142.464C142.362 60 142.288 59.966 142.243 59.898C142.198 59.83 142.164 59.728 142.141 59.592L142.124 59.082C142.113 58.98 142.073 58.929 142.005 58.929C141.971 58.929 141.897 58.9743 141.784 59.065ZM142.09 55.886C142.09 55.784 142.067 55.7103 142.022 55.665C141.988 55.6197 141.926 55.597 141.835 55.597L141.138 55.648C140.345 55.7047 139.682 55.886 139.149 56.192C138.628 56.4867 138.367 56.8947 138.367 57.416C138.367 57.8013 138.503 58.1073 138.775 58.334C139.058 58.5607 139.432 58.674 139.897 58.674C140.486 58.674 141.002 58.4927 141.444 58.13C141.875 57.79 142.09 57.4443 142.09 57.093V55.886ZM148.425 59.626C148.425 59.7733 148.396 59.8753 148.34 59.932C148.283 59.9773 148.181 60 148.034 60H146.538C146.413 60 146.322 59.9773 146.266 59.932C146.22 59.8867 146.198 59.8073 146.198 59.694L146.249 47.675C146.249 47.4823 146.334 47.386 146.504 47.386H148.187C148.345 47.386 148.425 47.4767 148.425 47.658V59.626ZM152.791 59.626C152.791 59.7733 152.762 59.8753 152.706 59.932C152.649 59.9773 152.547 60 152.4 60H150.904C150.779 60 150.688 59.9773 150.632 59.932C150.586 59.8867 150.564 59.8073 150.564 59.694L150.615 47.675C150.615 47.4823 150.7 47.386 150.87 47.386H152.553C152.711 47.386 152.791 47.4767 152.791 47.658V59.626ZM162.512 60.17C161.639 60.17 160.863 59.9773 160.183 59.592C159.503 59.1953 158.976 58.6457 158.602 57.943C158.228 57.2403 158.041 56.4413 158.041 55.546C158.041 54.628 158.233 53.812 158.619 53.098C159.004 52.3727 159.537 51.8117 160.217 51.415C160.897 51.0183 161.667 50.82 162.529 50.82C163.401 50.82 164.178 51.024 164.858 51.432C165.538 51.8287 166.065 52.384 166.439 53.098C166.813 53.812 167 54.6223 167 55.529C167 56.4243 166.807 57.2233 166.422 57.926C166.048 58.6287 165.521 59.1783 164.841 59.575C164.161 59.9717 163.384 60.17 162.512 60.17ZM162.529 58.657C163.254 58.657 163.804 58.385 164.178 57.841C164.563 57.297 164.756 56.515 164.756 55.495C164.756 54.4637 164.563 53.6703 164.178 53.115C163.792 52.5597 163.243 52.282 162.529 52.282C161.815 52.282 161.259 52.5597 160.863 53.115C160.477 53.6703 160.285 54.4637 160.285 55.495C160.285 56.515 160.477 57.297 160.863 57.841C161.259 58.385 161.815 58.657 162.529 58.657ZM173.425 50.99C173.607 50.99 173.697 51.075 173.697 51.245V52.316C173.697 52.4633 173.612 52.537 173.442 52.537H171.861C171.748 52.537 171.691 52.5937 171.691 52.707V59.711C171.691 59.9037 171.606 60 171.436 60H169.719C169.561 60 169.481 59.9093 169.481 59.728V52.69C169.481 52.588 169.442 52.537 169.362 52.537H167.985C167.815 52.537 167.73 52.4633 167.73 52.316V51.245C167.73 51.075 167.821 50.99 168.002 50.99H169.294C169.419 50.99 169.481 50.9163 169.481 50.769V49.664C169.481 48.9387 169.685 48.3777 170.093 47.981C170.501 47.5843 171.079 47.386 171.827 47.386H173.442C173.658 47.386 173.765 47.488 173.765 47.692L173.782 48.644C173.782 48.712 173.76 48.7687 173.714 48.814C173.68 48.8593 173.624 48.882 173.544 48.882H172.541C172.247 48.882 172.02 48.984 171.861 49.188C171.714 49.3807 171.64 49.6413 171.64 49.97V50.82C171.64 50.9333 171.703 50.99 171.827 50.99H173.425ZM179.385 62.805C178.999 62.805 178.733 62.788 178.586 62.754C178.438 62.72 178.365 62.6407 178.365 62.516V61.428C178.365 61.258 178.529 61.173 178.858 61.173H179.98C180.342 61.173 180.654 61.02 180.915 60.714C181.175 60.408 181.306 60.085 181.306 59.745C181.306 59.6317 181.289 59.524 181.255 59.422L177.991 51.364C177.979 51.3413 177.974 51.3017 177.974 51.245C177.974 51.177 177.996 51.1203 178.042 51.075C178.098 51.0183 178.166 50.99 178.246 50.99H180.014C180.093 50.99 180.161 51.0127 180.218 51.058C180.286 51.1033 180.331 51.1657 180.354 51.245L182.462 56.838C182.496 56.94 182.541 56.991 182.598 56.991C182.654 56.991 182.705 56.9287 182.751 56.804L184.842 51.228C184.921 51.0693 185.029 50.99 185.165 50.99H186.406C186.496 50.99 186.559 51.0297 186.593 51.109C186.638 51.177 186.644 51.2507 186.61 51.33L183.04 60.272C182.756 60.9633 182.45 61.4903 182.122 61.853C181.804 62.2157 181.43 62.465 181 62.601C180.58 62.737 180.042 62.805 179.385 62.805ZM192.096 60.17C191.223 60.17 190.447 59.9773 189.767 59.592C189.087 59.1953 188.56 58.6457 188.186 57.943C187.812 57.2403 187.625 56.4413 187.625 55.546C187.625 54.628 187.817 53.812 188.203 53.098C188.588 52.3727 189.121 51.8117 189.801 51.415C190.481 51.0183 191.251 50.82 192.113 50.82C192.985 50.82 193.762 51.024 194.442 51.432C195.122 51.8287 195.649 52.384 196.023 53.098C196.397 53.812 196.584 54.6223 196.584 55.529C196.584 56.4243 196.391 57.2233 196.006 57.926C195.632 58.6287 195.105 59.1783 194.425 59.575C193.745 59.9717 192.968 60.17 192.096 60.17ZM192.113 58.657C192.838 58.657 193.388 58.385 193.762 57.841C194.147 57.297 194.34 56.515 194.34 55.495C194.34 54.4637 194.147 53.6703 193.762 53.115C193.376 52.5597 192.827 52.282 192.113 52.282C191.399 52.282 190.843 52.5597 190.447 53.115C190.061 53.6703 189.869 54.4637 189.869 55.495C189.869 56.515 190.061 57.297 190.447 57.841C190.843 58.385 191.399 58.657 192.113 58.657ZM201.745 58.555C202.437 58.555 203.156 58.164 203.904 57.382V51.33C203.904 51.1033 204.035 50.99 204.295 50.99H205.825C206.029 50.99 206.131 51.0977 206.131 51.313L206.097 59.728C206.097 59.9093 206.018 60 205.859 60H204.193C204.035 60 203.955 59.915 203.955 59.745V58.844C203.955 58.7873 203.938 58.7533 203.904 58.742C203.87 58.7307 203.831 58.7477 203.785 58.793C203.264 59.2917 202.765 59.6487 202.289 59.864C201.825 60.068 201.326 60.17 200.793 60.17C200.023 60.17 199.388 59.9263 198.889 59.439C198.402 58.9517 198.158 58.3 198.158 57.484V51.347C198.158 51.109 198.277 50.99 198.515 50.99H200.079C200.181 50.99 200.255 51.0183 200.3 51.075C200.346 51.1203 200.368 51.1997 200.368 51.313V57.11C200.368 57.552 200.493 57.9033 200.742 58.164C200.992 58.4247 201.326 58.555 201.745 58.555ZM208.561 60C208.357 60 208.255 59.898 208.255 59.694V51.279C208.255 51.0863 208.334 50.99 208.493 50.99H210.142C210.3 50.99 210.38 51.075 210.38 51.245V52.282C210.38 52.3727 210.408 52.418 210.465 52.418C210.499 52.418 210.544 52.3897 210.601 52.333C210.975 51.857 211.388 51.4887 211.842 51.228C212.295 50.956 212.737 50.82 213.168 50.82C213.576 50.82 213.78 50.9107 213.78 51.092V52.724C213.78 52.8827 213.706 52.9507 213.559 52.928C213.241 52.8487 212.89 52.809 212.505 52.809C212.21 52.809 211.898 52.8883 211.57 53.047C211.252 53.2057 210.986 53.4153 210.771 53.676C210.567 53.9253 210.465 54.186 210.465 54.458V59.66C210.465 59.8867 210.334 60 210.074 60H208.561ZM71.369 73.537C71.2557 73.537 71.199 73.5993 71.199 73.724V78.263C71.199 78.6937 71.284 78.9997 71.454 79.181C71.6353 79.351 71.9243 79.436 72.321 79.436H73.324C73.392 79.436 73.4487 79.4587 73.494 79.504C73.5393 79.5493 73.562 79.606 73.562 79.674L73.545 80.558C73.545 80.7507 73.4373 80.864 73.222 80.898C72.814 80.966 72.1907 81 71.352 81C70.5813 81 69.992 80.8243 69.584 80.473C69.1873 80.1103 68.989 79.5663 68.989 78.841V73.758C68.989 73.6107 68.921 73.537 68.785 73.537H67.646C67.4647 73.537 67.374 73.452 67.374 73.282V72.211C67.374 72.0637 67.459 71.99 67.629 71.99H68.887C68.989 71.99 69.04 71.9333 69.04 71.82L69.261 69.202C69.2723 69.1 69.295 69.032 69.329 68.998C69.363 68.9527 69.4197 68.93 69.499 68.93H71.012C71.08 68.93 71.1367 68.9583 71.182 69.015C71.2273 69.0603 71.25 69.1283 71.25 69.219V71.82C71.25 71.922 71.301 71.973 71.403 71.973H73.324C73.494 71.973 73.579 72.0523 73.579 72.211V73.282C73.579 73.452 73.4827 73.537 73.29 73.537H71.369ZM80.2089 80.065C79.4155 80.8017 78.4862 81.17 77.4209 81.17C76.5595 81.17 75.8739 80.9433 75.3639 80.49C74.8652 80.0253 74.6159 79.4247 74.6159 78.688C74.6159 77.7473 75.0352 76.9993 75.8739 76.444C76.7125 75.8887 77.8855 75.5827 79.3929 75.526L80.2429 75.475C80.4242 75.4523 80.5149 75.3673 80.5149 75.22V74.829C80.5149 74.3303 80.3619 73.945 80.0559 73.673C79.7612 73.3897 79.3532 73.248 78.8319 73.248C77.9705 73.248 77.3075 73.622 76.8429 74.37C76.8089 74.4153 76.7749 74.455 76.7409 74.489C76.7182 74.5117 76.6842 74.523 76.6389 74.523C76.5822 74.523 76.5369 74.5173 76.5029 74.506L75.0749 74.149C74.9842 74.1263 74.9389 74.0753 74.9389 73.996C74.9389 73.9393 74.9615 73.8657 75.0069 73.775C75.3015 73.1403 75.7832 72.6587 76.4519 72.33C77.1319 71.99 77.9592 71.82 78.9339 71.82C80.2032 71.82 81.1325 72.0693 81.7219 72.568C82.3225 73.0667 82.6229 73.7693 82.6229 74.676V80.66C82.6229 80.7847 82.6002 80.8753 82.5549 80.932C82.5209 80.9773 82.4472 81 82.3339 81H80.8889C80.7869 81 80.7132 80.966 80.6679 80.898C80.6225 80.83 80.5885 80.728 80.5659 80.592L80.5489 80.082C80.5375 79.98 80.4979 79.929 80.4299 79.929C80.3959 79.929 80.3222 79.9743 80.2089 80.065ZM80.5149 76.886C80.5149 76.784 80.4922 76.7103 80.4469 76.665C80.4129 76.6197 80.3505 76.597 80.2599 76.597L79.5629 76.648C78.7695 76.7047 78.1065 76.886 77.5739 77.192C77.0525 77.4867 76.7919 77.8947 76.7919 78.416C76.7919 78.8013 76.9279 79.1073 77.1999 79.334C77.4832 79.5607 77.8572 79.674 78.3219 79.674C78.9112 79.674 79.4269 79.4927 79.8689 79.13C80.2995 78.79 80.5149 78.4443 80.5149 78.093V76.886ZM90.1474 74.217C89.9207 73.911 89.626 73.6673 89.2634 73.486C88.9007 73.3047 88.4814 73.214 88.0054 73.214C87.5067 73.214 87.093 73.316 86.7644 73.52C86.447 73.724 86.2884 73.9903 86.2884 74.319C86.2884 74.5117 86.3677 74.6873 86.5264 74.846C86.685 74.9933 86.974 75.1237 87.3934 75.237L89.4164 75.781C90.2664 75.9963 90.8897 76.325 91.2864 76.767C91.683 77.209 91.8814 77.736 91.8814 78.348C91.8814 78.926 91.7114 79.4303 91.3714 79.861C91.0427 80.2803 90.578 80.6033 89.9774 80.83C89.388 81.0567 88.7137 81.17 87.9544 81.17C87.0137 81.17 86.192 81 85.4894 80.66C84.7867 80.3087 84.288 79.8553 83.9934 79.3C83.948 79.2093 83.9254 79.147 83.9254 79.113C83.9254 79.045 83.9594 78.9883 84.0274 78.943L85.0304 78.433C85.1097 78.3877 85.1777 78.365 85.2344 78.365C85.2797 78.365 85.3307 78.3933 85.3874 78.45C85.6594 78.8353 85.988 79.1413 86.3734 79.368C86.77 79.5947 87.28 79.708 87.9034 79.708C88.4814 79.708 88.9517 79.6117 89.3144 79.419C89.6884 79.215 89.8754 78.9373 89.8754 78.586C89.8754 78.348 89.7734 78.1497 89.5694 77.991C89.3767 77.821 89.0367 77.6737 88.5494 77.549L86.8154 77.141C85.954 76.937 85.3194 76.631 84.9114 76.223C84.5147 75.815 84.3164 75.2937 84.3164 74.659C84.3164 74.1037 84.4637 73.6107 84.7584 73.18C85.0644 72.7493 85.495 72.415 86.0504 72.177C86.617 71.939 87.2744 71.82 88.0224 71.82C88.827 71.82 89.541 71.973 90.1644 72.279C90.7877 72.5737 91.2467 72.9533 91.5414 73.418C91.598 73.5087 91.6264 73.5823 91.6264 73.639C91.6264 73.6957 91.598 73.741 91.5414 73.775L90.4874 74.302C90.4194 74.3247 90.3797 74.336 90.3684 74.336C90.2777 74.336 90.204 74.2963 90.1474 74.217ZM102.105 80.643C102.139 80.6883 102.156 80.7393 102.156 80.796C102.156 80.932 102.071 81 101.901 81H100.031C99.8501 81 99.7141 80.898 99.6234 80.694L97.5834 76.886C97.5494 76.7953 97.5097 76.75 97.4644 76.75C97.4304 76.75 97.3851 76.7783 97.3284 76.835L95.9174 78.229C95.8154 78.3083 95.7644 78.4387 95.7644 78.62V80.626C95.7644 80.7733 95.7361 80.8753 95.6794 80.932C95.6227 80.9773 95.5207 81 95.3734 81H93.8944C93.7697 81 93.6791 80.9773 93.6224 80.932C93.5771 80.8867 93.5544 80.8073 93.5544 80.694V68.675C93.5544 68.4823 93.6394 68.386 93.8094 68.386H95.5264C95.6851 68.386 95.7644 68.4767 95.7644 68.658V75.951C95.7644 76.0417 95.7871 76.087 95.8324 76.087C95.8777 76.087 95.9231 76.0587 95.9684 76.002L99.5044 72.228C99.6631 72.0693 99.8047 71.99 99.9294 71.99H101.476C101.646 71.99 101.731 72.0467 101.731 72.16C101.731 72.2167 101.697 72.2903 101.629 72.381L99.1304 74.897C99.0737 74.9763 99.0454 75.0443 99.0454 75.101C99.0454 75.1577 99.0681 75.2313 99.1134 75.322L102.105 80.643ZM108.841 74.217C108.614 73.911 108.319 73.6673 107.957 73.486C107.594 73.3047 107.175 73.214 106.699 73.214C106.2 73.214 105.786 73.316 105.458 73.52C105.14 73.724 104.982 73.9903 104.982 74.319C104.982 74.5117 105.061 74.6873 105.22 74.846C105.378 74.9933 105.667 75.1237 106.087 75.237L108.11 75.781C108.96 75.9963 109.583 76.325 109.98 76.767C110.376 77.209 110.575 77.736 110.575 78.348C110.575 78.926 110.405 79.4303 110.065 79.861C109.736 80.2803 109.271 80.6033 108.671 80.83C108.081 81.0567 107.407 81.17 106.648 81.17C105.707 81.17 104.885 81 104.183 80.66C103.48 80.3087 102.981 79.8553 102.687 79.3C102.641 79.2093 102.619 79.147 102.619 79.113C102.619 79.045 102.653 78.9883 102.721 78.943L103.724 78.433C103.803 78.3877 103.871 78.365 103.928 78.365C103.973 78.365 104.024 78.3933 104.081 78.45C104.353 78.8353 104.681 79.1413 105.067 79.368C105.463 79.5947 105.973 79.708 106.597 79.708C107.175 79.708 107.645 79.6117 108.008 79.419C108.382 79.215 108.569 78.9373 108.569 78.586C108.569 78.348 108.467 78.1497 108.263 77.991C108.07 77.821 107.73 77.6737 107.243 77.549L105.509 77.141C104.647 76.937 104.013 76.631 103.605 76.223C103.208 75.815 103.01 75.2937 103.01 74.659C103.01 74.1037 103.157 73.6107 103.452 73.18C103.758 72.7493 104.188 72.415 104.744 72.177C105.31 71.939 105.968 71.82 106.716 71.82C107.52 71.82 108.234 71.973 108.858 72.279C109.481 72.5737 109.94 72.9533 110.235 73.418C110.291 73.5087 110.32 73.5823 110.32 73.639C110.32 73.6957 110.291 73.741 110.235 73.775L109.181 74.302C109.113 74.3247 109.073 74.336 109.062 74.336C108.971 74.336 108.897 74.2963 108.841 74.217ZM119.285 79.555C119.977 79.555 120.696 79.164 121.444 78.382V72.33C121.444 72.1033 121.575 71.99 121.835 71.99H123.365C123.569 71.99 123.671 72.0977 123.671 72.313L123.637 80.728C123.637 80.9093 123.558 81 123.399 81H121.733C121.575 81 121.495 80.915 121.495 80.745V79.844C121.495 79.7873 121.478 79.7533 121.444 79.742C121.41 79.7307 121.371 79.7477 121.325 79.793C120.804 80.2917 120.305 80.6487 119.829 80.864C119.365 81.068 118.866 81.17 118.333 81.17C117.563 81.17 116.928 80.9263 116.429 80.439C115.942 79.9517 115.698 79.3 115.698 78.484V72.347C115.698 72.109 115.817 71.99 116.055 71.99H117.619C117.721 71.99 117.795 72.0183 117.84 72.075C117.886 72.1203 117.908 72.1997 117.908 72.313V78.11C117.908 78.552 118.033 78.9033 118.282 79.164C118.532 79.4247 118.866 79.555 119.285 79.555ZM131.303 74.217C131.076 73.911 130.781 73.6673 130.419 73.486C130.056 73.3047 129.637 73.214 129.161 73.214C128.662 73.214 128.248 73.316 127.92 73.52C127.602 73.724 127.444 73.9903 127.444 74.319C127.444 74.5117 127.523 74.6873 127.682 74.846C127.84 74.9933 128.129 75.1237 128.549 75.237L130.572 75.781C131.422 75.9963 132.045 76.325 132.442 76.767C132.838 77.209 133.037 77.736 133.037 78.348C133.037 78.926 132.867 79.4303 132.527 79.861C132.198 80.2803 131.733 80.6033 131.133 80.83C130.543 81.0567 129.869 81.17 129.11 81.17C128.169 81.17 127.347 81 126.645 80.66C125.942 80.3087 125.443 79.8553 125.149 79.3C125.103 79.2093 125.081 79.147 125.081 79.113C125.081 79.045 125.115 78.9883 125.183 78.943L126.186 78.433C126.265 78.3877 126.333 78.365 126.39 78.365C126.435 78.365 126.486 78.3933 126.543 78.45C126.815 78.8353 127.143 79.1413 127.529 79.368C127.925 79.5947 128.435 79.708 129.059 79.708C129.637 79.708 130.107 79.6117 130.47 79.419C130.844 79.215 131.031 78.9373 131.031 78.586C131.031 78.348 130.929 78.1497 130.725 77.991C130.532 77.821 130.192 77.6737 129.705 77.549L127.971 77.141C127.109 76.937 126.475 76.631 126.067 76.223C125.67 75.815 125.472 75.2937 125.472 74.659C125.472 74.1037 125.619 73.6107 125.914 73.18C126.22 72.7493 126.65 72.415 127.206 72.177C127.772 71.939 128.43 71.82 129.178 71.82C129.982 71.82 130.696 71.973 131.32 72.279C131.943 72.5737 132.402 72.9533 132.697 73.418C132.753 73.5087 132.782 73.5823 132.782 73.639C132.782 73.6957 132.753 73.741 132.697 73.775L131.643 74.302C131.575 74.3247 131.535 74.336 131.524 74.336C131.433 74.336 131.359 74.2963 131.303 74.217ZM136.954 70.324C136.954 70.46 136.92 70.562 136.852 70.63C136.795 70.6867 136.693 70.715 136.546 70.715H134.999C134.874 70.715 134.789 70.6867 134.744 70.63C134.698 70.5733 134.676 70.4883 134.676 70.375V68.709C134.676 68.4937 134.766 68.386 134.948 68.386H136.699C136.778 68.386 136.84 68.4143 136.886 68.471C136.931 68.5163 136.954 68.5843 136.954 68.675V70.324ZM136.92 80.626C136.92 80.762 136.886 80.8583 136.818 80.915C136.761 80.9717 136.659 81 136.512 81H135.033C134.908 81 134.823 80.9773 134.778 80.932C134.732 80.8867 134.71 80.8073 134.71 80.694V72.279C134.71 72.0863 134.795 71.99 134.965 71.99H136.682C136.84 71.99 136.92 72.0807 136.92 72.262V80.626ZM139.365 81C139.252 81 139.173 80.9773 139.127 80.932C139.082 80.8867 139.059 80.8073 139.059 80.694V72.279C139.059 72.0863 139.139 71.99 139.297 71.99H140.997C141.145 71.99 141.218 72.075 141.218 72.245V73.129C141.218 73.197 141.235 73.2367 141.269 73.248C141.303 73.2593 141.349 73.2423 141.405 73.197C141.938 72.7323 142.431 72.3867 142.884 72.16C143.349 71.9333 143.848 71.82 144.38 71.82C145.219 71.82 145.876 72.0637 146.352 72.551C146.84 73.027 147.083 73.6617 147.083 74.455V80.643C147.083 80.881 146.964 81 146.726 81H145.162C145.049 81 144.97 80.9773 144.924 80.932C144.89 80.8867 144.873 80.8073 144.873 80.694V74.846C144.873 74.404 144.749 74.064 144.499 73.826C144.261 73.5767 143.91 73.452 143.445 73.452C143.049 73.452 142.686 73.5427 142.357 73.724C142.04 73.9053 141.677 74.2 141.269 74.608V80.66C141.269 80.7847 141.241 80.8753 141.184 80.932C141.128 80.9773 141.026 81 140.878 81H139.365ZM157.892 71.684C158.118 71.684 158.232 71.7973 158.232 72.024V72.976C158.232 73.2593 158.107 73.384 157.858 73.35C157.767 73.3387 157.642 73.333 157.484 73.333C157.314 73.333 157.161 73.35 157.025 73.384C156.73 73.452 156.617 73.5823 156.685 73.775C156.753 73.9563 156.804 74.1093 156.838 74.234C156.872 74.3473 156.889 74.4947 156.889 74.676C156.889 75.1973 156.736 75.6677 156.43 76.087C156.135 76.5063 155.687 76.8407 155.087 77.09C154.497 77.328 153.778 77.447 152.928 77.447C152.225 77.447 151.715 77.5037 151.398 77.617C151.092 77.7303 150.939 77.8833 150.939 78.076C150.939 78.2347 151.029 78.348 151.211 78.416C151.403 78.484 151.721 78.5293 152.163 78.552L154.509 78.688C155.585 78.7447 156.384 78.9883 156.906 79.419C157.438 79.8383 157.705 80.405 157.705 81.119C157.705 81.9917 157.297 82.683 156.481 83.193C155.676 83.7143 154.526 83.975 153.03 83.975C151.454 83.975 150.264 83.7823 149.46 83.397C148.666 83.023 148.27 82.462 148.27 81.714C148.27 81.34 148.406 81.017 148.678 80.745C148.961 80.4617 149.363 80.2123 149.885 79.997C149.953 79.9743 149.987 79.946 149.987 79.912C149.987 79.878 149.953 79.844 149.885 79.81C149.273 79.538 148.967 79.1527 148.967 78.654C148.967 78.3593 149.108 78.0873 149.392 77.838C149.675 77.5887 150.049 77.3733 150.514 77.192C150.593 77.1467 150.633 77.1127 150.633 77.09C150.633 77.056 150.599 77.022 150.531 76.988C149.477 76.4893 148.95 75.7243 148.95 74.693C148.95 73.8203 149.307 73.129 150.021 72.619C150.746 72.109 151.772 71.854 153.098 71.854C154.242 71.854 155.126 72.109 155.75 72.619C155.829 72.6757 155.903 72.704 155.971 72.704C156.05 72.704 156.124 72.67 156.192 72.602C156.396 72.3527 156.662 72.1373 156.991 71.956C157.331 71.7747 157.631 71.684 157.892 71.684ZM152.911 76.291C153.557 76.291 154.044 76.1493 154.373 75.866C154.701 75.5827 154.866 75.1973 154.866 74.71C154.866 74.1887 154.701 73.7807 154.373 73.486C154.044 73.18 153.557 73.027 152.911 73.027C152.299 73.027 151.817 73.18 151.466 73.486C151.126 73.792 150.956 74.2 150.956 74.71C150.956 75.186 151.126 75.5713 151.466 75.866C151.817 76.1493 152.299 76.291 152.911 76.291ZM151.568 80.286C151.228 80.2633 150.899 80.3653 150.582 80.592C150.276 80.8187 150.123 81.0963 150.123 81.425C150.123 81.8897 150.366 82.241 150.854 82.479C151.352 82.717 152.134 82.836 153.2 82.836C154.027 82.836 154.656 82.717 155.087 82.479C155.517 82.2523 155.733 81.918 155.733 81.476C155.733 80.8187 155.245 80.4673 154.271 80.422L151.568 80.286ZM168.959 80.643C168.959 80.7677 168.925 80.8583 168.857 80.915C168.789 80.9717 168.682 81 168.534 81H166.817C166.693 81 166.602 80.9773 166.545 80.932C166.5 80.8753 166.477 80.796 166.477 80.694V78.773C166.477 78.5803 166.557 78.484 166.715 78.484H168.721C168.88 78.484 168.959 78.569 168.959 78.739V80.643ZM172.994 80.643C172.994 80.7677 172.96 80.8583 172.892 80.915C172.824 80.9717 172.716 81 172.569 81H170.852C170.727 81 170.636 80.9773 170.58 80.932C170.534 80.8753 170.512 80.796 170.512 80.694V78.773C170.512 78.5803 170.591 78.484 170.75 78.484H172.756C172.914 78.484 172.994 78.569 172.994 78.739V80.643ZM177.028 80.643C177.028 80.7677 176.994 80.8583 176.926 80.915C176.858 80.9717 176.75 81 176.603 81H174.886C174.761 81 174.671 80.9773 174.614 80.932C174.569 80.8753 174.546 80.796 174.546 80.694V78.773C174.546 78.5803 174.625 78.484 174.784 78.484H176.79C176.949 78.484 177.028 78.569 177.028 78.739V80.643ZM182.235 81C182.087 81 182.014 80.9207 182.014 80.762C182.014 80.728 182.025 80.6657 182.048 80.575L186.332 68.692C186.377 68.5787 186.428 68.4993 186.485 68.454C186.541 68.4087 186.626 68.386 186.74 68.386H188.865C189.114 68.386 189.273 68.4993 189.341 68.726L193.591 80.592C193.613 80.66 193.625 80.711 193.625 80.745C193.625 80.813 193.602 80.8753 193.557 80.932C193.523 80.9773 193.472 81 193.404 81H191.347C191.188 81 191.086 80.9263 191.041 80.779L190.055 78.025C190.032 77.9683 190.009 77.9287 189.987 77.906C189.964 77.872 189.919 77.855 189.851 77.855H185.414C185.312 77.855 185.244 77.906 185.21 78.008L184.19 80.796C184.156 80.932 184.054 81 183.884 81H182.235ZM189.239 75.934C189.341 75.934 189.392 75.8887 189.392 75.798C189.392 75.7413 189.386 75.696 189.375 75.662L187.743 71.123C187.709 71.0437 187.669 71.004 187.624 71.004C187.578 71.004 187.539 71.0493 187.505 71.14L185.856 75.662C185.833 75.73 185.822 75.781 185.822 75.815C185.822 75.8943 185.878 75.934 185.992 75.934H189.239ZM197.192 71.99C197.408 71.99 197.515 72.092 197.515 72.296V72.874C197.515 72.9647 197.544 73.01 197.6 73.01C197.634 73.01 197.68 72.9817 197.736 72.925C198.099 72.585 198.462 72.3187 198.824 72.126C199.198 71.922 199.686 71.82 200.286 71.82C200.978 71.82 201.59 71.99 202.122 72.33C202.666 72.67 203.091 73.1857 203.397 73.877C203.703 74.557 203.856 75.3957 203.856 76.393C203.856 77.9457 203.516 79.13 202.836 79.946C202.156 80.762 201.255 81.17 200.133 81.17C199.227 81.17 198.456 80.881 197.821 80.303C197.708 80.2123 197.634 80.167 197.6 80.167C197.544 80.167 197.515 80.2463 197.515 80.405V83.533C197.515 83.7143 197.436 83.805 197.277 83.805H195.543C195.385 83.805 195.305 83.7143 195.305 83.533V72.33C195.305 72.2053 195.328 72.1203 195.373 72.075C195.43 72.0183 195.521 71.99 195.645 71.99H197.192ZM197.515 78.79C198.082 79.4133 198.7 79.725 199.368 79.725C200.071 79.725 200.621 79.453 201.017 78.909C201.414 78.3537 201.612 77.5093 201.612 76.376C201.612 75.288 201.414 74.5003 201.017 74.013C200.632 73.5143 200.105 73.265 199.436 73.265C199.074 73.265 198.745 73.3443 198.45 73.503C198.156 73.6503 197.923 73.843 197.753 74.081C197.595 74.319 197.515 74.5683 197.515 74.829V78.79ZM207.485 71.99C207.701 71.99 207.808 72.092 207.808 72.296V72.874C207.808 72.9647 207.837 73.01 207.893 73.01C207.927 73.01 207.973 72.9817 208.029 72.925C208.392 72.585 208.755 72.3187 209.117 72.126C209.491 71.922 209.979 71.82 210.579 71.82C211.271 71.82 211.883 71.99 212.415 72.33C212.959 72.67 213.384 73.1857 213.69 73.877C213.996 74.557 214.149 75.3957 214.149 76.393C214.149 77.9457 213.809 79.13 213.129 79.946C212.449 80.762 211.548 81.17 210.426 81.17C209.52 81.17 208.749 80.881 208.114 80.303C208.001 80.2123 207.927 80.167 207.893 80.167C207.837 80.167 207.808 80.2463 207.808 80.405V83.533C207.808 83.7143 207.729 83.805 207.57 83.805H205.836C205.678 83.805 205.598 83.7143 205.598 83.533V72.33C205.598 72.2053 205.621 72.1203 205.666 72.075C205.723 72.0183 205.814 71.99 205.938 71.99H207.485ZM207.808 78.79C208.375 79.4133 208.993 79.725 209.661 79.725C210.364 79.725 210.914 79.453 211.31 78.909C211.707 78.3537 211.905 77.5093 211.905 76.376C211.905 75.288 211.707 74.5003 211.31 74.013C210.925 73.5143 210.398 73.265 209.729 73.265C209.367 73.265 209.038 73.3443 208.743 73.503C208.449 73.6503 208.216 73.843 208.046 74.081C207.888 74.319 207.808 74.5683 207.808 74.829V78.79Z" fill="white"/>
</svg>
